<svg width="24" height="24" viewBox="0 0 24 24" fill="none" xmlns="http://www.w3.org/2000/svg">
<g opacity="0.9">
<path d="M11.9806 19.4262C16.0731 19.4262 19.3908 16.1085 19.3908 12.016C19.3908 7.92339 16.0731 4.60571 11.9806 4.60571C7.88799 4.60571 4.57031 7.92339 4.57031 12.016C4.57031 16.1085 7.88799 19.4262 11.9806 19.4262Z" fill="#5E60CE"/>
<path d="M11.9645 4.85959C13.3768 4.85959 14.7573 5.27837 15.9316 6.06298C17.1058 6.84758 18.021 7.96278 18.5615 9.26753C19.1019 10.5723 19.2433 12.008 18.9678 13.3931C18.6923 14.7782 18.0122 16.0506 17.0136 17.0492C16.015 18.0478 14.7427 18.7279 13.3576 19.0034C11.9724 19.2789 10.5367 19.1375 9.23197 18.597C7.92722 18.0566 6.81202 17.1414 6.02742 15.9671C5.24281 14.7929 4.82403 13.4123 4.82403 12.0001C4.83134 10.1086 5.58599 8.29659 6.92351 6.95907C8.26103 5.62155 10.073 4.8669 11.9645 4.85959ZM11.9645 3.27281C10.24 3.27986 8.55616 3.7977 7.12568 4.76094C5.69519 5.72419 4.58215 7.08965 3.92707 8.68496C3.272 10.2803 3.10426 12.0339 3.44502 13.7245C3.78579 15.415 4.61978 16.9667 5.84172 18.1837C7.06366 19.4007 8.61876 20.2283 10.3107 20.5622C12.0026 20.896 13.7556 20.7211 15.3482 20.0596C16.9408 19.398 18.3017 18.2794 19.2591 16.845C20.2165 15.4106 20.7275 13.7246 20.7275 12.0001C20.7275 10.851 20.5006 9.71321 20.0598 8.65203C19.619 7.59086 18.9729 6.62718 18.1587 5.81631C17.3445 5.00544 16.3782 4.36334 15.3153 3.92686C14.2523 3.49038 13.1136 3.26811 11.9645 3.27281Z" fill="#5E60CE"/>
<path d="M15.4311 9.34215L11.0991 13.6741L8.61667 11.1916L7.78076 12.0275L11.0991 15.3459L16.267 10.1781L15.4311 9.34215Z" fill="#F2F2F2"/>
</g>
</svg>
